<svg enable-background="new 0 0 140 140" height="512" viewBox="0 0 140 140" width="512" xmlns="http://www.w3.org/2000/svg"><circle cx="70" cy="70" fill="#334d5c" r="64"/><path d="m43.1064644 88.7982483.6400146 1.6101074 2.1699829 2.1699219c-.3699951.1000977-.7399902.1800537-1.0900269.2199707l.210022 1.710083 4.6599731 4.6600342c-.9199829.4899902-1.8599854.9699707-2.8399658 1.3999023l.7000122 1.5700684 3.3299561 3.3299561.7200317.9901123 2.4799805 2.4799805c-.1400146.1599121-.2299805.2700195-.2600098.2999268l24.2416954 24.2374268c29.6799316-3.7362061 53.022583-27.7824707 55.666626-57.7890625l-39.1882934-39.1883585c-10.2200317-7.9899883-20.210022-11.0999737-29.6900024-9.2499981-14.8500328 2.9100342-22.9800377 16.8099346-23.3200035 17.4000225l3.9199829 3.8299561c-1.0599976 1.6900635-1.9400024 3.25-2.6300049 4.460083-.6199951 1.0799561-1.25 2.1799316-1.4899902 2.4599609.039978-.0300293.1500244-.1000977.3099976-.1199951l.2399902 1.7099609 2.6400146 2.6400146c-1.4500122 1.3900146-2.7299805 2.2199707-3.4899902 2.6999512-.4899902.3100586-.7800293.5-.9500122.7399902h-14.4099751v6.5800819l18.6300068 18.6300049c-.4000244.1800538-.7900391.3599855-1.2000122.5198976z" opacity=".1"/><g fill="#d5d6db"><path d="m43.0379982 45.5068207-1.4986-.8606834c.3386459-.5906639 8.4690018-14.4920921 23.3138046-17.3947868 9.4855118-1.8541241 19.4744873 1.2567081 29.6941071 9.246994l-1.0643234 1.3613396c-9.8027802-7.664011-19.3197861-10.6612129-28.2843857-8.9150963-14.0651245 2.7429332-22.0812874 16.4238471-22.1606026 16.5622329z"/><path d="m41.8887329 56.9915848-.2441406-1.7101135c-.2165794.0303764-.3324623.1406364-.334713.1417618.2182655-.2115173.8769989-1.3680916 1.5143547-2.4864159 2.6765518-4.6983147 8.2451096-14.4752197 15.7904282-17.960701 4.5987434-2.1263924 13.6651611-5.167469 22.7068253-1.6561089 7.1948547 2.7946854 12.915863 9.1547356 17.0032654 18.903511l-1.5942307.668293c-3.8989487-9.2998695-9.2936859-15.3426476-16.0345764-17.9606972-8.4493103-3.2807198-17.0066338-.3971519-21.3567352 1.6133575-7.0418472 3.2537155-12.4258919 12.705471-15.0135651 17.2474022-1.4288445 2.5089151-1.768055 3.1052057-2.4369126 3.199711z"/><path d="m41.4381409 64.1380615c.0044975-.0033722.1040688-.0922546.1631355-.2700157l-1.6392365-.5467873c.1293831-.3881493.4247169-.5771637 1.0710716-.9900665 1.8130608-1.1599503 6.6295052-4.2392807 9.6807098-12.4208298 2.2765884-6.1057816 7.5717545-11.0594864 13.8181763-12.9271126 4.7928162-1.4344711 12.3803253-1.7663689 21.3117294 4.7838211l-1.0215683 1.3928413c-8.3593063-6.1282845-15.379776-5.8402634-19.7945709-4.5216751-5.739006 1.7168617-10.6032677 6.2666664-12.6947823 11.8751678-3.2531548 8.7238312-8.4228745 12.0293007-10.3686943 13.2736359-.2486418.1586343-.4320258.2688905-.5259703.3510209z"/><path d="m87.6680374 72.6593857-1.3332138-1.0980759c11.1191177-13.4952774 1.2145233-25.2939415 1.1127014-25.4120712l1.3095856-1.127327c.1108246.1282578 10.9458542 13.0317459-1.0890732 27.6374741z"/><path d="m42.0023651 70.7490082-.8944359-1.4783554c.1057587-.0675049 11.0859299-8.1635437 14.4566536-17.0831375 3.6019287-9.5361366 12.2886353-11.9066696 17.2507782-11.1607437 4.5717392.6817932 8.8020248 2.745182 11.6057129 5.661377l-1.2454605 1.1970787c-2.5443573-2.6461754-6.4134903-4.5228004-10.6145172-5.1483421-4.4057999-.6592941-12.1378746 1.4817238-15.3797798 10.060421-3.6002426 9.5293845-15.0703812 17.8875693-15.1789513 17.951702z"/><path d="m97.1107941 96.0958252c-2.4959793 0-10.721405-4.131279-14.3683319-10.645462-2.5550461-4.5633087-2.3750381-9.4708862.519783-14.1916962 7.9379654-12.9473686 2.4200363-19.7248192 2.180954-20.0072136l1.3112793-1.1262016c.2745209.3183975 6.6193771 7.9475327-2.0195084 22.0357208-2.5842972 4.2156601-2.7474365 8.4031906-.4843445 12.444458 3.4753571 6.2081604 11.2766266 9.7622757 12.8601685 9.7622757z"/><path d="m99.3030014 88.8627167c-2.5314178-.6334229-5.9983368-2.5482941-7.4361801-5.8627701-1.1532059-2.6585541-.8213043-5.6557541.9850006-8.9072189 4.3495407-7.82827 4.5942459-17.9134445 4.595932-18.0147018l1.7281189.0337524c-.0084381.4297791-.2570801 10.6195831-4.8130722 18.8202591-1.5323563 2.7575531-1.8383713 5.240593-.9101868 7.3804855 1.1869507 2.7361832 4.1194611 4.3360443 6.2700424 4.8738327z"/><path d="m98.265686 93.6206589c-6.0365906-2.6416779-9.9023514-6.1136627-11.4892654-10.3214417-1.7455597-4.6285553-.0315094-8.3941879.0421829-8.5516968l1.5661087.7313004-.7830505-.3656464.7841721.3633957c-.0151825.0326309-1.4805984 3.3088455.020256 7.2466125 1.4254684 3.7408676 4.9756393 6.8742065 10.5526428 9.3133698z"/><path d="m41.4893303 78.8596725-.9158096-1.4648514c2.422287-1.5132217 6.4759331-4.0457687 13.0626831-10.9402313l1.249958 1.1948318c-6.7369499 7.0497209-10.9059143 9.6542741-13.3968315 11.2102509z"/><path d="m82.5770721 66.9912567-1.495224-.8663101c2.1882706-3.7802544 4.9008255-10.8862267-1.5267258-15.9906921-3.0843964-2.4481659-7.4659958-3.1310844-11.1618729-1.7427406-2.5106049.9450607-4.1695251 2.690052-4.5509262 4.7871933-1.1363258 6.2486649-6.8792725 11.5950203-7.1234131 11.8200417l-1.170639-1.2713394c.0556908-.0506287 5.5623703-5.1854706 6.5940628-10.8569717.4927826-2.7103081 2.5494232-4.9323311 5.6422501-6.0967827 4.2522202-1.5998573 9.295372-.8123055 12.844986 2.0082588 5.4374847 4.3180388 6.1474075 10.9548567 1.9475021 18.2093428z"/><path d="m42.4225807 84.5142975-.6412926-1.6043549c1.2212677-.4882812 19.2562218-11.4600143 22.8232727-22.6263885l1.6459885.5265388c-3.8016319 11.901043-22.3816833 23.1259194-23.8279686 23.7042046z"/><path d="m45.0400696 94.5117188-.2115173-1.7146149c8.319931-1.0249481 22.0869141-16.9728851 23.4341888-19.3467941.2655182-.4680328.7836151-1.1599503 1.4997253-2.1173935 2.3199081-3.1018295 6.638504-8.8734665 6.0208435-12.5468369-.158638-.9416847-.6407318-1.6729851-1.474411-2.2377739-1.5582275-1.0553207-2.96064-1.38834-4.165596-.9900665-2.1697006.7144241-3.1935196 3.549614-3.2036514 3.5777397l-1.6313553-.5704117c.0523148-.14851 1.3045273-3.6576195 4.2842865-4.6454353 1.7416153-.5794144 3.6570587-.1766357 5.6850052 1.1970787 1.2285843.8314323 1.9722519 1.9700089 2.2096481 3.3819771.74086 4.40242-3.6924973 10.3281898-6.3409271 13.8688011-.6272278.8381805-1.1689529 1.5627289-1.3804626 1.9351273-1.1661454 2.0543899-15.2295838 19.0396499-24.7257767 20.2086029z"/><path d="m43.7479172 90.4063187-.6435394-1.6043625c18.0338287-7.2331009 27.4253922-29.3453293 27.5182114-29.5669708l1.5953522.6637955c-.3892747.9360618-9.7538339 23.0010375-28.4700242 30.5075378z"/><path d="m94.9157715 101.3431702c-8.6056976-3.2998428-14.2271347-8.1736679-16.7079239-14.487587-3.4944839-8.8925934.5389099-17.3036575.7121735-17.656929l1.5520401.7594223c-.0393829.0810089-3.8708267 8.1095428-.6486053 16.2843399 2.2996521 5.8335114 7.5858154 10.3720627 15.7111053 13.4873962z"/><path d="m47.5574226 102.1430969-.7020454-1.5796051c19.8643265-8.8397141 28.6837921-30.074379 28.7704239-30.288147l1.600975.6502991c-.0888748.2193909-9.1541672 22.0886002-29.6693535 31.217453z"/><path d="m88.3250809 102.5841293c-9.7527084-4.9818344-13.3490143-12.550209-14.5708466-16.2134552-3.6053009 5.6298752-10.3917542 10.1718063-10.7095909 10.3821945l-.9551888-1.4401016c.0821304-.0551224 8.2799911-5.5432434 11.1674957-11.5803986l1.1644516-2.4346619.4663467 2.6585541c.0191269.1080093 2.0352631 10.8626022 14.2237625 17.088768z"/><path d="m89.8174973 108.4435196c-6.6694489-5.5409927-13.7112961-8.9927216-19.8283234-9.7172699-6.5563774-.788681-18.2672844 7.648262-18.3848572 7.7337646l-1.0148163-1.3995972c.502346-.3633957 12.3758278-8.8937149 19.6033096-8.051033 8.6951447 1.0316925 16.7197418 6.7740784 20.7295074 10.1043015z"/><path d="m87.0256195 112.394783c-1.9199371-.2992706-3.7684402-1.8687439-5.9083328-3.6857452-2.9960709-2.5449219-6.3926773-5.4296112-11.0302353-5.9448929-7.6791992-.8426819-14.8633652 7.5065002-14.9353714 7.5908813l-1.3202744-1.1149521c.3155823-.374649 7.8265839-9.1401062 16.446907-8.1927948 5.1624069.5737839 8.9302826 3.7734985 11.9578629 6.3442993 1.9407578 1.6482315 3.6165543 3.0714493 5.0549622 3.2953415z"/><path d="m82.5348816 114.2331543c-.6570435-.1496277-1.5520401-.7976761-3.2087097-2.0251312-2.8104401-2.0858917-7.5183182-5.5702438-9.8067169-4.2876587-3.8471985 2.1545181-8.9179115 5.890892-8.969101 5.9291458l-1.0260696-1.3905945c.2103882-.1552582 5.2096634-3.8387604 9.150238-6.0461578 3.2683411-1.8282471 8.1309128 1.7753677 11.6805267 4.4069214.9861298.7301712 2.2124634 1.640358 2.5634842 1.7281189z"/><path d="m102.2068253 63.3797607-1.708992-.2587662c2.1983948-14.5067177-5.911705-21.27742-5.9938354-21.3449249l1.0840073-1.3455887c.36734.2958947 8.9730376 7.411995 6.6188201 22.9492798z"/><path d="m99.6928406 84.8911972c-2.3019028-.4601517-3.8010635-1.5728531-4.4547348-3.3043442-1.8659363-4.9424515 4.3439178-13.1723785 4.6088715-13.5211563l1.3748398 1.0474472c-1.6454239 2.1612701-5.6366272 8.5033188-4.3669739 11.8639221.4359665 1.1531982 1.474968 1.8788757 3.1766434 2.2197723z"/><path d="m78.0930862 67.889061-1.446846-.9450607c2.4836044-3.7982521 3.4224777-8.1871719 2.3924713-11.1809959-.6120377-1.7776184-1.8754959-3.003952-3.7555008-3.6452446-5.7480087-1.9610062-8.7232666 1.7798691-8.7525177 1.8181229l-1.3680954-1.0553207c.1507645-.1946373 3.7735062-4.7534409 10.6786499-2.3986588 2.3772888.8111763 4.0480194 2.4425354 4.8310776 4.7185631 1.2162018 3.5338629.2278214 8.3953093-2.5792389 12.6885947z"/><path d="m68.7448349 96.2972107v-.8640594l-.1788864-.8426819c.4550934-.1305084 3.7442551-1.6358566 4.1239624-4.0221405l1.7067413.2722702c-.5670395 3.5619812-5.1399078 5.4566116-5.6518173 5.4566116z"/></g><path d="m25.673676 63.065022h86.212059v6.585643h-86.212059z" fill="#e56353"/></svg>